<svg width="68" height="48" viewBox="0 0 68 48" fill="none" xmlns="http://www.w3.org/2000/svg">
<path fill-rule="evenodd" clip-rule="evenodd" d="M60.755 7.37667C61.327 6.81373 62.1289 6.53918 62.9307 6.63346C63.7326 6.73052 64.4475 7.18254 64.8653 7.86474C65.2859 8.5497 65.3644 9.38439 65.0812 10.1331C64.798 10.8791 64.184 11.4587 63.4129 11.6999V24.2264C63.4129 24.6119 63.2587 24.9807 62.9868 25.2497C62.712 25.5214 62.3391 25.674 61.9522 25.674H53.8774C53.8914 25.502 53.897 25.3301 53.897 25.1582V25.1554C53.897 24.8004 53.8689 24.4483 53.8101 24.0961H61.8174V11.7002C60.9426 11.4257 60.2754 10.7185 60.0567 9.8339C59.8408 8.95204 60.1044 8.02028 60.752 7.37695L60.755 7.37667ZM53.897 31.3974H57.427C57.626 31.3974 57.8195 31.4473 57.9961 31.5388C58.17 31.6304 58.3186 31.7662 58.4307 31.9298L60.2139 34.5366H62.8579C63.2504 33.3109 64.4868 32.5538 65.7682 32.7507C67.0523 32.9476 68 34.0402 68 35.3242C68 36.6081 67.0523 37.7008 65.7682 37.8976C64.4868 38.0917 63.2504 37.3347 62.8579 36.1118H60.0092C59.8102 36.1118 59.6167 36.0646 59.44 35.9731C59.2662 35.8816 59.1148 35.7485 59.0055 35.5849L57.2251 32.9698H53.3783C53.6278 32.4707 53.8016 31.941 53.897 31.3919L53.897 31.3974ZM52.6185 37.9364H55.8008L55.798 37.9336C56.1204 37.9364 56.426 38.0612 56.6531 38.2858C56.8802 38.5104 57.0092 38.8155 57.0092 39.1344V42.9252V42.9224C58.2429 43.3134 59.0055 44.5336 58.8092 45.7981C58.6102 47.0655 57.5083 48 56.2101 48C54.9148 48 53.8129 47.0655 53.6138 45.7981C53.4148 44.5336 54.1802 43.3134 55.4138 42.9224V39.5087H51.7521L51.7914 39.4588V39.4615C52.153 39.004 52.4362 38.4854 52.6212 37.9336L52.6185 37.9364ZM16.2394 39.5087H12.5749V42.9224C13.8086 43.3106 14.5711 44.5308 14.3749 45.7981C14.1758 47.0655 13.0739 47.9972 11.7758 47.9972C10.4804 47.9972 9.37861 47.0655 9.1795 45.7981C8.98044 44.5308 9.74586 43.3107 10.9795 42.9224V39.1344C10.9795 38.8155 11.1057 38.5104 11.3328 38.2858C11.5599 38.0612 11.8683 37.9336 12.1879 37.9336H15.3702C15.5581 38.4855 15.8384 39.0013 16.2029 39.4616L16.2422 39.5115L16.2394 39.5087ZM14.6077 32.9725H10.7665L8.98606 35.5876C8.87672 35.7512 8.72532 35.8843 8.55148 35.9758C8.37485 36.0673 8.18139 36.1144 7.98232 36.1144H5.13653C4.744 37.3374 3.51036 38.0945 2.22901 37.8975C0.947663 37.7007 0 36.6081 0 35.3269C0 34.0429 0.947663 32.953 2.22901 32.7562C3.51036 32.5593 4.74398 33.3163 5.13653 34.5393H7.78048L9.56089 31.9242V31.9215C9.67304 31.7578 9.82164 31.6247 9.99548 31.5332C10.1693 31.4389 10.3656 31.3918 10.5646 31.389H14.0974H14.0946C14.1367 31.6275 14.1927 31.8632 14.2628 32.0962C14.3553 32.3957 14.4731 32.6868 14.6133 32.9669L14.6077 32.9725ZM14.1114 25.6738H6.03942C5.23474 25.6711 4.5815 25.0249 4.57863 24.2263V11.6998C3.34214 11.3115 2.57672 10.0886 2.77583 8.82128C2.97493 7.55394 4.07957 6.61663 5.37772 6.61663C6.67307 6.61663 7.77777 7.55394 7.97681 8.82128C8.17585 10.0886 7.41045 11.3115 6.17401 11.6998V24.0956H14.1814C14.1253 24.4478 14.0945 24.8 14.0945 25.155C14.0945 25.3269 14.1001 25.4988 14.1141 25.6708L14.1114 25.6738ZM14.8459 15.779C14.9413 15.2244 15.1347 14.692 15.4151 14.2011H12.6057C12.2132 12.9809 10.9796 12.2238 9.6982 12.4208C8.41685 12.6177 7.46919 13.7075 7.46919 14.9915C7.46919 16.2726 8.41685 17.3653 9.6982 17.5621C10.9796 17.7562 12.2132 17.002 12.6057 15.779H14.8459ZM19.646 10.524H17.3273C17.0076 10.524 16.6992 10.3965 16.4749 10.1718C16.2478 9.94721 16.1188 9.64494 16.1188 9.32881V5.07485C14.8851 4.68661 14.1197 3.46646 14.3188 2.19912C14.5179 0.931772 15.6198 6.77029e-06 16.9151 6.77029e-06C18.2105 6.77029e-06 19.3123 0.931772 19.5114 2.19912C19.7105 3.46646 18.9479 4.68659 17.7114 5.07485V8.94332H20.9918C20.532 9.34543 20.1255 9.80573 19.7834 10.3105C19.7357 10.3798 19.6908 10.4491 19.646 10.5185V10.524ZM46.9992 8.94608H50.2796L50.2824 5.07484C49.0459 4.6866 48.2833 3.46645 48.4824 2.19911C48.6815 0.931766 49.7834 0 51.0787 0C52.3741 0 53.4759 0.931766 53.675 2.19911C53.8741 3.46645 53.1086 4.68658 51.875 5.07484V9.32049C51.875 9.6394 51.746 9.94167 51.5189 10.1663C51.2946 10.3909 50.9862 10.5157 50.6666 10.5157H48.345C48.3002 10.4436 48.2553 10.3743 48.2077 10.3077C47.8656 9.80301 47.459 9.34266 46.9992 8.94056L46.9992 8.94608ZM52.5731 14.2011C52.8563 14.6919 53.0497 15.2244 53.1451 15.779H55.3853C55.7778 17.002 57.0114 17.7563 58.2928 17.5621C59.5741 17.3652 60.5218 16.2726 60.5218 14.9915C60.5218 13.7075 59.5741 12.6176 58.2928 12.4208C57.0114 12.2239 55.7778 12.9809 55.3853 14.2011H52.5731ZM38.9499 18.3247H29.0412C28.8393 18.3275 28.6767 18.4883 28.6739 18.688V28.4884C28.6767 28.6881 28.8393 28.8517 29.0412 28.8517H38.9499C39.1518 28.8517 39.3144 28.6881 39.3172 28.4884V18.6937C39.3144 18.4912 39.1518 18.3304 38.9499 18.3304V18.3247ZM26.5685 14.1512C26.4311 14.0153 26.2153 13.9931 26.0526 14.1013C25.8928 14.2067 25.8283 14.4146 25.904 14.5921C25.9769 14.7696 26.1704 14.8694 26.361 14.8334C26.5517 14.7946 26.6891 14.6282 26.6891 14.4368C26.6891 14.3287 26.647 14.2261 26.5685 14.1512ZM34.324 13.1861C34.1866 13.0502 33.9707 13.0281 33.8081 13.1362C33.6455 13.2444 33.581 13.4496 33.6567 13.6271C33.7324 13.8073 33.923 13.9071 34.1165 13.8711C34.3071 13.8323 34.4445 13.6659 34.4445 13.4718C34.4445 13.3636 34.4025 13.261 34.324 13.1861ZM40.9913 12.0963C40.8539 11.9604 40.6381 11.9382 40.4754 12.0464C40.31 12.1517 40.2483 12.3597 40.3212 12.5372C40.3969 12.7175 40.5876 12.8201 40.781 12.7812C40.9745 12.7452 41.1119 12.576 41.1119 12.3847C41.1119 12.2765 41.0698 12.1739 40.9913 12.0963ZM43.5372 16.242C43.6773 16.1062 43.697 15.8926 43.5876 15.7318C43.4811 15.5737 43.2736 15.5099 43.0914 15.5848C42.9119 15.6569 42.811 15.8483 42.8474 16.0368C42.8867 16.2254 43.0549 16.3613 43.2484 16.3613C43.3577 16.3613 43.4615 16.3197 43.5372 16.242ZM44.5129 23.9127C44.6531 23.7768 44.6755 23.5605 44.5662 23.3997C44.4568 23.2388 44.2493 23.175 44.0671 23.2499C43.8848 23.322 43.7811 23.5134 43.8204 23.7047C43.8596 23.8933 44.0278 24.0319 44.2241 24.0319C44.3335 24.0319 44.4372 23.9903 44.5129 23.9127ZM45.6148 30.5072C45.7522 30.3713 45.7746 30.1578 45.6653 29.9969C45.5587 29.8333 45.3484 29.7723 45.169 29.8444C44.9868 29.9193 44.883 30.1106 44.9223 30.2992C44.9615 30.4905 45.1297 30.6264 45.3232 30.6264C45.4326 30.6264 45.5363 30.5848 45.6148 30.5072ZM41.4232 33.028C41.5606 33.1638 41.7765 33.186 41.9391 33.0779C42.1017 32.9697 42.1634 32.7645 42.0905 32.587C42.0148 32.4068 41.8242 32.3069 41.6307 32.343C41.44 32.3818 41.3027 32.5482 41.3027 32.7395C41.3027 32.8477 41.3447 32.9503 41.4232 33.028ZM33.6678 33.9902C33.8052 34.1261 34.0211 34.1483 34.1837 34.0402C34.3463 33.932 34.4108 33.7268 34.3351 33.5493C34.2594 33.3691 34.0687 33.2692 33.8753 33.3081C33.6846 33.3441 33.5472 33.5105 33.5472 33.7046C33.5472 33.8128 33.5893 33.9154 33.6678 33.9902ZM27.0004 35.0801C27.1378 35.216 27.3537 35.2382 27.5163 35.13C27.6817 35.0246 27.7434 34.8167 27.6705 34.6392C27.5948 34.4589 27.4041 34.3563 27.2107 34.3951C27.0172 34.434 26.8798 34.6003 26.8798 34.7945C26.8798 34.8998 26.9219 35.0025 27.0004 35.0801ZM24.4546 30.9343C24.3144 31.0702 24.2948 31.2837 24.4041 31.4446C24.5106 31.6054 24.7181 31.6664 24.9004 31.5916C25.0798 31.5195 25.1807 31.3281 25.1443 31.1395C25.105 30.951 24.9368 30.8151 24.7434 30.8151C24.634 30.8151 24.5303 30.8567 24.4546 30.9343ZM23.4788 23.2637C23.3387 23.3996 23.3162 23.6159 23.4256 23.7767C23.5349 23.9375 23.7424 24.0013 23.9246 23.9265C24.1069 23.8544 24.2106 23.663 24.1714 23.4717C24.1321 23.2831 23.9639 23.1444 23.7676 23.1444C23.6583 23.1444 23.5545 23.1888 23.4788 23.2637ZM22.3769 16.6692C22.2395 16.8051 22.2171 17.0186 22.3265 17.1822C22.433 17.3431 22.6433 17.4041 22.8227 17.332C23.005 17.2571 23.1087 17.0685 23.0695 16.8772C23.0302 16.6886 22.862 16.55 22.6685 16.55C22.5592 16.55 22.4554 16.5915 22.3769 16.6692ZM20.6638 16.9548C20.6638 17.6121 20.9919 18.2249 21.5415 18.5937C22.091 18.9626 22.7863 19.0374 23.4032 18.7989L25.0658 20.4434C25.2116 20.5876 25.4079 20.668 25.6154 20.6736L27.0817 20.7013V22.8117L25.621 22.7923V22.7895C25.3097 22.0518 24.578 21.5693 23.7677 21.5693C23.0359 21.5693 22.3602 21.9658 22.0097 22.6036C21.6593 23.2414 21.6901 24.0179 22.0882 24.6253C22.4864 25.2353 23.1902 25.5792 23.9219 25.5237C24.6537 25.4683 25.2958 25.0218 25.5985 24.359L27.0845 24.3784V26.4721L24.7546 26.4389H24.7518C24.5415 26.4361 24.3368 26.5165 24.1854 26.6635C24.0368 26.8077 23.9499 27.0074 23.9471 27.2153V29.4005C23.078 29.7749 22.5929 30.7011 22.7863 31.619C22.977 32.5369 23.7957 33.1942 24.7434 33.1942C25.6911 33.1942 26.5097 32.5369 26.7033 31.619C26.8967 30.7011 26.4117 29.7749 25.5425 29.4005V28.0223L27.0845 28.0445V28.4882H27.0817C27.0817 29.5614 27.9621 30.4294 29.0472 30.4294H29.4874L29.4621 31.5303L28.0266 32.9501C27.2107 32.6312 26.2771 32.8753 25.7275 33.5547C25.178 34.2341 25.1416 35.1881 25.635 35.9063C26.1285 36.6245 27.0397 36.9406 27.8808 36.6856C28.7192 36.4304 29.294 35.6623 29.294 34.7943C29.294 34.5447 29.2463 34.2951 29.1538 34.065L30.8164 32.4205C30.9622 32.2763 31.0463 32.0822 31.0491 31.877L31.0771 30.4266H33.2164L33.1968 31.8714H33.194C32.3164 32.232 31.8173 33.1526 31.994 34.0761C32.1734 34.9996 32.9837 35.6706 33.9342 35.6845C34.8846 35.6983 35.7118 35.0494 35.9164 34.1315C36.1239 33.2136 35.6473 32.2791 34.7809 31.8964L34.7977 30.4239H36.9146L36.8809 32.7284H36.8781C36.8753 32.9364 36.9566 33.1388 37.1052 33.2858C37.251 33.4355 37.4529 33.5215 37.6632 33.5215H37.6744V33.5243H39.8725V33.5271C40.2482 34.3867 41.1875 34.8692 42.1155 34.6779C43.0436 34.4866 43.7109 33.6768 43.7109 32.7395C43.7109 31.7994 43.0436 30.9897 42.1155 30.7983C41.1875 30.6097 40.2482 31.0895 39.8725 31.9491H38.4791L38.5015 30.4239H38.9501C40.0351 30.4239 40.9127 29.5559 40.9127 28.4827V28.0474L42.0287 28.0668L43.4642 29.4866C43.1417 30.2963 43.3885 31.2198 44.0754 31.7633C44.7623 32.3041 45.7268 32.3429 46.453 31.852C47.1791 31.364 47.4988 30.4627 47.2409 29.6336C46.9829 28.8016 46.2063 28.2331 45.3287 28.2331C45.0763 28.2331 44.824 28.2802 44.5913 28.3718L42.9287 26.7273C42.7829 26.5831 42.5866 26.5027 42.3792 26.4971L40.9128 26.4722V24.3674L42.3736 24.3868H42.3764C42.7381 25.2548 43.6689 25.7512 44.6026 25.5737C45.5363 25.3963 46.2148 24.5948 46.2287 23.6548C46.2428 22.7175 45.5867 21.8966 44.6586 21.6942C43.7306 21.4918 42.7857 21.9604 42.3988 22.8173L40.9129 22.7979V20.7042L43.2428 20.7375C43.6802 20.743 44.0391 20.3964 44.0447 19.9638V17.7758C44.6531 17.5152 45.0905 16.9716 45.2138 16.3282C45.34 15.6821 45.1325 15.0193 44.6643 14.5562C44.2409 14.1375 43.655 13.9295 43.0577 13.985C42.4633 14.0376 41.925 14.3538 41.5885 14.8418C41.2549 15.3299 41.1568 15.9428 41.3222 16.5085C41.4876 17.077 41.9026 17.5401 42.4493 17.7758V19.1541L40.9072 19.1319L40.91 18.6937C40.91 17.6205 40.0296 16.7498 38.9446 16.7498H38.5044L38.524 15.6461L39.9596 14.2262C40.8428 14.5729 41.8493 14.2567 42.368 13.4719C42.8895 12.6871 42.7802 11.65 42.1101 10.9872C41.44 10.3245 40.3914 10.2163 39.5979 10.7321C38.8044 11.2479 38.4876 12.2407 38.8353 13.1142L37.1727 14.7587V14.7559C37.0269 14.9001 36.9427 15.097 36.9399 15.2994L36.9203 16.7498H34.7838L34.8034 15.305C35.5493 14.9972 36.0371 14.2734 36.0371 13.472C36.0371 12.7482 35.6362 12.0827 34.9914 11.736C34.3465 11.3894 33.5614 11.4199 32.9474 11.8137C32.3306 12.2074 31.9829 12.9035 32.039 13.6273C32.0951 14.351 32.5465 14.9861 33.2165 15.2828L33.1941 16.7498H31.0773L31.1109 14.4453H31.1137C31.1193 14.0127 30.7689 13.6577 30.3286 13.6522H28.1193C27.7408 12.7926 26.8044 12.3128 25.8763 12.5041C24.9482 12.6927 24.2837 13.5024 24.2837 14.4398C24.2837 15.3771 24.9482 16.1868 25.8763 16.3782C26.8044 16.5696 27.7408 16.0898 28.1193 15.2274H29.5128L29.4903 16.7525H29.0417C27.9567 16.7525 27.0791 17.6233 27.0791 18.6965V19.1319L25.9632 19.1125L24.5277 17.6926V17.6899C24.7491 17.1408 24.7099 16.5224 24.4211 16.0066C24.1323 15.488 23.6276 15.1247 23.0388 15.0138C22.4528 14.9029 21.8472 15.0554 21.3874 15.4326C20.9276 15.8097 20.6612 16.3726 20.6612 16.9633L20.6638 16.9548ZM16.9965 35.2991C16.8731 35.6901 16.8227 36.1005 16.8451 36.5109C16.9152 37.7643 17.6807 38.8763 18.8301 39.4032C19.9825 39.9301 21.3339 39.7859 22.346 39.0289C22.5872 38.8486 22.9096 38.8209 23.1816 38.954C23.4507 39.0871 23.6218 39.3616 23.6218 39.6584C23.7395 41.8935 25.3069 43.7958 27.4938 44.3616C29.6835 44.9273 31.991 44.0288 33.1994 42.1375V38.0555C33.2134 37.6285 33.5667 37.2902 33.9957 37.2902C34.4275 37.2902 34.7808 37.6285 34.7948 38.0555V42.1403V42.1375C36.0032 44.0288 38.3107 44.9273 40.5004 44.3616C42.6874 43.7958 44.2547 41.8935 44.3724 39.6584C44.3724 39.3616 44.5434 39.0871 44.8126 38.954C45.0845 38.8209 45.407 38.8486 45.6481 39.0289C46.6603 39.7859 48.0117 39.9273 49.1612 39.4005C50.3136 38.8736 51.0762 37.7643 51.1463 36.5109C51.1687 36.1005 51.1182 35.6901 50.9949 35.2991C50.235 35.7344 49.3799 35.9896 48.5023 36.045C48.0761 36.0534 47.7201 35.7289 47.692 35.3074C47.6668 34.8859 47.978 34.5198 48.4042 34.4754C49.6266 34.4005 50.7509 33.7877 51.4714 32.806C52.192 31.8243 52.4303 30.5736 52.1247 29.4006C51.5892 29.9913 50.95 30.4765 50.235 30.8343C50.0471 30.9313 49.8256 30.9507 49.6238 30.8869C49.4191 30.8232 49.2509 30.679 49.1555 30.4904C49.0602 30.3046 49.0434 30.0855 49.1135 29.8859C49.1808 29.6862 49.3266 29.5226 49.52 29.4311C51.149 28.6158 52.1752 26.963 52.1752 25.1577C52.1752 23.3524 51.149 21.6997 49.52 20.8844C49.349 20.8012 49.2172 20.6625 49.1443 20.4906C49.063 20.2965 49.0602 20.0802 49.1415 19.8888C49.22 19.6947 49.3742 19.5422 49.5677 19.4618C50.4453 19.093 51.1069 18.3525 51.3705 17.4458C51.6313 16.5417 51.4658 15.5656 50.9191 14.7946C50.3724 14.0237 49.5004 13.5357 48.5499 13.4719C47.5994 13.4081 46.6714 13.7741 46.0209 14.4646C45.7209 14.7669 45.2303 14.778 44.9134 14.4868C44.5994 14.1984 44.5742 13.7131 44.8574 13.3942C45.4882 12.7203 46.3041 12.2461 47.2069 12.0298C47.0835 11.7608 46.9405 11.5056 46.7751 11.2616C45.3956 9.21509 42.7881 8.36099 40.447 9.18179C40.0321 9.32877 39.5779 9.11246 39.432 8.70204C39.2862 8.2944 39.5049 7.84518 39.9171 7.70092C40.9937 7.32378 42.1461 7.21285 43.276 7.37647C43.0517 6.9716 42.7657 6.6028 42.432 6.28107C41.2825 5.17736 39.6395 4.7392 38.0862 5.11915C36.5301 5.50183 35.2853 6.64987 34.7918 8.15567V9.67255C34.7974 9.88608 34.7189 10.0913 34.5675 10.2438C34.4161 10.3991 34.2114 10.4851 33.9955 10.4851C33.7797 10.4851 33.5722 10.3991 33.4236 10.2438C33.2722 10.0913 33.1909 9.88608 33.1993 9.67255V8.15567C32.703 6.65264 31.4609 5.50733 29.9077 5.12745C28.3572 4.74476 26.717 5.18014 25.5674 6.28107C25.231 6.60274 24.9478 6.97157 24.7235 7.37647C25.8506 7.21285 27.003 7.32378 28.0796 7.70092C28.2843 7.7647 28.4553 7.9089 28.5535 8.10025C28.6488 8.29159 28.6628 8.51344 28.5899 8.71311C28.5198 8.91554 28.3684 9.07915 28.1721 9.16789C27.9759 9.25663 27.7516 9.26218 27.5497 9.18453C24.8918 8.25 21.9534 9.4868 20.7926 12.0297C21.6926 12.2488 22.5085 12.723 23.1393 13.3941C23.4225 13.7158 23.3973 14.1983 23.0833 14.4895C22.7692 14.7779 22.2786 14.7696 21.9758 14.4673C21.3281 13.7768 20.4 13.4135 19.4496 13.4774C18.4991 13.5411 17.6271 14.0264 17.0804 14.7974C17.072 14.8112 17.0636 14.8223 17.0524 14.8334C16.5224 15.6071 16.371 16.5749 16.6374 17.4706C16.9038 18.3663 17.5627 19.0957 18.4318 19.4617C18.715 19.581 18.9056 19.8527 18.9141 20.1606C18.9253 20.4656 18.757 20.7485 18.4795 20.8871C16.8505 21.7024 15.8243 23.3524 15.8243 25.1577C15.8243 26.9657 16.8505 28.6157 18.4795 29.431C18.8636 29.6307 19.015 30.0993 18.8187 30.482C18.6225 30.8647 18.1542 31.0228 17.7645 30.8342C17.0495 30.4765 16.4075 29.9912 15.8748 29.4033C15.8327 29.5586 15.8019 29.7139 15.7822 29.8747C15.628 30.9923 15.9505 32.1238 16.6738 32.9972C17.3972 33.8708 18.457 34.406 19.5953 34.4781C19.8112 34.4808 20.0187 34.5751 20.1645 34.7304C20.3103 34.8885 20.386 35.0992 20.372 35.3128C20.3608 35.5263 20.257 35.726 20.0916 35.8646C19.9262 36.0033 19.7103 36.0698 19.4972 36.0476C18.614 35.9922 17.7591 35.7372 16.9965 35.2991Z" fill="#00C5CD"/>
</svg>
