<svg width="48" height="48" viewBox="0 0 48 48" fill="none" xmlns="http://www.w3.org/2000/svg">
<path d="M5.80835 22.4742H9.52797V25.5405H5.80835C4.84056 25.5424 5.27997 23.9212 5.18906 23.0935C5.18906 22.7545 5.46936 22.4742 5.80835 22.4742ZM0 32.1616C0 32.4324 0.219689 32.6521 0.490509 32.6521H4.21013V31.673L0.490509 31.6711C0.219684 31.6711 0 31.8908 0 32.1616ZM0 15.8507C0 16.1215 0.219689 16.3412 0.490509 16.3412H4.21013V15.3601H0.490509C0.219684 15.3601 0 15.5798 0 15.8507ZM5.37296 30.8127C5.03395 31.0343 5.24607 32.7408 5.18925 33.076C5.18925 33.2465 5.25933 33.4018 5.37296 33.5135C5.47334 33.881 9.2422 33.6253 9.52816 33.6973V30.6309C9.22703 30.701 5.48278 30.4453 5.37296 30.8127ZM0 24.0059C0 24.2767 0.219689 24.4964 0.490509 24.4964H4.21013V23.5173L0.490509 23.5154C0.219684 23.5154 0 23.7351 0 24.0059ZM23.5165 47.5232C23.5071 48.1596 24.5052 48.1577 24.4957 47.5232V43.8034H23.5165V47.5232ZM22.473 42.2048C22.473 42.5439 22.7533 42.8241 23.0923 42.8241C23.9218 42.7332 25.5411 43.1707 25.5392 42.2048V38.4851H22.473V42.2048ZM15.3614 47.5232C15.352 48.1596 16.3501 48.1577 16.3406 47.5232V43.8034H15.3614V47.5232ZM14.316 42.2048C14.316 42.5439 14.5963 42.8241 14.9353 42.8241C15.7648 42.7332 17.3841 43.1707 17.3822 42.2048V38.4851H14.316V42.2048ZM16.3406 0.490526C16.3406 0.219692 16.1209 0 15.8501 0C15.5793 0 15.3596 0.219697 15.3596 0.490526V4.21027H16.3387L16.3406 0.490526ZM32.651 0.490526C32.651 0.219692 32.4313 0 32.1605 0C31.8897 0 31.67 0.219697 31.67 0.490526V4.21027H32.6491L32.651 0.490526ZM17.3825 5.80888C17.3825 5.46986 17.1022 5.18957 16.7632 5.18957C15.9356 5.28048 14.3144 4.84298 14.3163 5.80888V9.52862H17.3825V5.80888ZM42.8234 16.7636C42.7325 15.9341 43.1699 14.3147 42.2041 14.3166H38.4845V17.3829H42.2041C42.5431 17.3829 42.8234 17.1026 42.8234 16.7636ZM47.5221 15.3602H43.8025V16.3394H47.5221C48.1585 16.3489 48.1585 15.3507 47.5221 15.3602ZM47.5221 23.5155H43.8025V24.4946H47.5221C48.1585 24.506 48.1585 23.506 47.5221 23.5155ZM31.6723 47.5234C31.6628 48.1598 32.6609 48.1579 32.6514 47.5234V43.8037H31.6723V47.5234ZM33.6969 5.80912C33.6969 5.4701 33.4166 5.18982 33.0776 5.18982C32.25 5.28073 30.6288 4.84322 30.6307 5.80912V9.52886H33.6969V5.80912ZM25.54 5.80912C25.54 5.4701 25.2597 5.18982 24.9207 5.18982C24.0931 5.28073 22.4719 4.84322 22.4738 5.80912V9.52886H25.54V5.80912ZM24.4965 0.490768C24.4965 0.219934 24.2768 0.000242423 24.006 0.000242423C23.7351 0.000242423 23.5155 0.219939 23.5155 0.490768V4.21051H24.4946L24.4965 0.490768ZM5.19028 14.9379C5.28118 15.7675 4.8437 17.3868 5.80956 17.3849H9.52918V14.3186H5.80956C5.47055 14.3186 5.19028 14.597 5.19028 14.9379ZM27.3754 22.0594C27.5118 23.2981 27.5118 24.7148 27.3754 25.9534C26.3717 26.6901 25.1482 27.3947 24.0081 27.8966C22.868 27.3947 21.6445 26.6901 20.6408 25.9534C20.5044 24.7147 20.5044 23.298 20.6408 22.0594C21.6464 21.3227 22.868 20.6181 24.0081 20.1163C25.1482 20.6182 26.3698 21.3227 27.3754 22.0594ZM25.6539 22.3606C23.457 20.2337 20.2334 23.4553 22.3604 25.6542C24.5573 27.7811 27.7809 24.5595 25.6539 22.3606ZM34.3053 15.4097V32.607C34.3053 33.0729 34.114 33.499 33.8053 33.8078C33.4966 34.1165 33.0724 34.3077 32.6046 34.3077L15.4099 34.3059C14.4762 34.3059 13.7092 33.5407 13.7092 32.6051V15.4098C13.7092 14.4742 14.4762 13.709 15.4099 13.709H32.6065C33.5383 13.709 34.3053 14.476 34.3053 15.4097ZM30.8527 24.0081C33.758 20.5138 31.9209 17.3113 27.4305 18.0798C25.851 13.8089 22.1676 13.8071 20.586 18.0798C16.1013 17.3109 14.2545 20.506 17.1638 24.0081C14.4839 27.1843 15.7736 30.525 20.1391 29.9893C20.2849 29.976 20.4364 29.9571 20.5879 29.9362C22.1674 34.2071 25.8508 34.209 27.4324 29.9362C31.9152 30.7033 33.76 27.5084 30.8527 24.0081ZM28.2979 26.4816C28.1786 27.3832 27.9968 28.2279 27.7619 28.9911C31.1823 29.4892 32.3451 27.476 30.2032 24.7638C29.6596 25.349 29.0176 25.9286 28.2979 26.4816ZM22.6597 24.0081C22.6673 25.7714 25.3472 25.7714 25.3566 24.0081C25.3472 22.2448 22.6673 22.2448 22.6597 24.0081ZM21.5651 29.7507C21.5935 29.8151 21.6219 29.8795 21.6503 29.9439C22.9704 33.0727 25.2563 32.7753 26.4475 29.7507C25.6691 29.5727 24.8453 29.3075 24.0063 28.959C23.1672 29.3075 22.3435 29.5727 21.5651 29.7507ZM26.7901 28.8284C26.9436 28.3454 27.0742 27.8265 27.1803 27.2753C26.5705 27.675 25.9019 28.0613 25.2504 28.389C25.7788 28.5727 26.2958 28.7204 26.7901 28.8284ZM42.2046 22.4744H38.4849V25.5407H42.2046C42.5436 25.5407 42.8238 25.2604 42.8238 24.9214C42.7329 24.0918 43.1704 22.4725 42.2046 22.4744ZM47.5227 31.6716H43.8031V32.6507H47.5227C48.1591 32.6602 48.1591 31.662 47.5227 31.6716ZM42.2046 30.6318H38.4849V33.6981H42.2046C42.5436 33.6981 42.8238 33.4178 42.8238 33.0788C42.7329 32.2474 43.1704 30.6299 42.2046 30.6318ZM37.5058 34.1867C37.5683 35.0996 37.271 36.0258 36.6346 36.6375C36.0286 37.272 35.0987 37.5675 34.1877 37.5069H30.1423C26.5004 37.5087 21.5195 37.505 17.8755 37.5069H13.8301C12.9172 37.5694 11.9911 37.272 11.3813 36.6356C10.7468 36.0296 10.4513 35.0996 10.5119 34.1886V30.1431C10.51 25.0332 10.5138 18.9406 10.5119 13.8302C10.351 12.0821 11.6937 10.5025 13.474 10.512H17.8754C19.9075 10.5082 24.0003 10.5177 26.0323 10.512H30.1421C30.2065 10.5309 34.6836 10.4855 34.5454 10.512C36.1741 10.512 37.5074 11.8434 37.5074 13.4742C37.5093 18.7164 37.5055 24.9002 37.5074 30.1429L37.5058 34.1867ZM35.2862 15.4098C35.2862 13.9325 34.0817 12.7299 32.6063 12.7299L15.4097 12.728C13.9362 12.728 12.7298 13.9345 12.7298 15.4079V32.6052C12.7298 33.3268 13.0196 33.984 13.4874 34.4669C13.9722 34.9745 14.6597 35.2851 15.4097 35.2851H32.6063C34.0836 35.2851 35.2862 34.0824 35.2862 32.6052V15.4098ZM27.1802 20.7393C27.0741 20.1882 26.9435 19.6693 26.7901 19.1863C26.2958 19.2943 25.7806 19.4401 25.2503 19.6238C25.9037 19.9515 26.5685 20.3397 27.1802 20.7393ZM26.4492 18.2639C25.1727 15.0537 22.8432 15.0537 21.5669 18.2639C22.3453 18.4419 23.1691 18.7071 24.0081 19.0556C24.8471 18.7071 25.6708 18.442 26.4492 18.2639ZM29.5722 24.0085C29.2313 23.6334 28.8487 23.2603 28.4245 22.8948C28.4661 23.6221 28.4661 24.3948 28.4245 25.1221C28.8487 24.7547 29.2332 24.3816 29.5722 24.0085ZM30.6309 42.2055C30.6309 42.5445 30.9112 42.8248 31.2502 42.8248C32.0778 42.7339 33.699 43.1714 33.6971 42.2055V38.4857H30.6309V42.2055ZM30.201 23.2487C32.3411 20.5403 31.182 18.5214 27.7597 19.0214C27.9946 19.7846 28.1764 20.6293 28.2957 21.5309C29.0173 22.0858 29.6593 22.6653 30.201 23.2487ZM21.2237 19.1862C21.0703 19.6691 20.9396 20.1881 20.8336 20.7392C21.4434 20.3377 22.1119 19.9532 22.7635 19.6255C22.2351 19.4399 21.7181 19.2941 21.2237 19.1862ZM18.4416 24.0082C18.7806 24.3832 19.1651 24.7563 19.5893 25.1218C19.5476 24.3945 19.5476 23.6218 19.5893 22.8945C19.1651 23.26 18.7806 23.6331 18.4416 24.0082ZM17.8128 23.2487C18.3564 22.6654 18.9965 22.0858 19.7181 21.5309C19.8374 20.6293 20.0192 19.7846 20.254 19.0214C16.8318 18.5233 15.6708 20.5365 17.8128 23.2487ZM21.7559 27.8434C21.4377 27.6597 21.1309 27.4703 20.8336 27.2752C20.9396 27.8264 21.0703 28.3453 21.2237 28.8283C21.718 28.7203 22.2332 28.5745 22.7635 28.3908C22.4282 28.2203 22.0892 28.0404 21.7559 27.8434ZM17.8128 24.7657C15.6727 27.4741 16.8318 29.4931 20.254 28.9931C20.0192 28.2298 19.8374 27.3851 19.7181 26.4836C18.9965 25.9287 18.3545 25.3491 17.8128 24.7657Z" fill="#00C5CD"/>
</svg>
