<svg width="56" height="48" viewBox="0 0 56 48" fill="none" xmlns="http://www.w3.org/2000/svg">
<path d="M48.5294 0H4.65269C2.06132 0 0 1.95981 0 4.36758V35.7246C0 38.1323 2.06132 40.1481 4.65269 40.1481H28.7407C28.6818 39.8682 28.6229 39.6442 28.564 39.3642C28.5051 38.8043 28.564 38.3003 28.7407 37.7964H4.5938C3.4159 37.7964 2.41469 36.8445 2.41469 35.7246V10.919H50.6496V28.0533C50.8263 27.9973 51.003 27.9413 51.1796 27.8853C51.4741 27.8293 51.7686 27.7733 52.0631 27.7733C52.4164 27.7733 52.7698 27.8293 53.1232 27.8853V4.36758C53.1821 1.95981 51.0619 0 48.5294 0ZM5.7717 6.77535C4.94717 6.77535 4.29933 6.15941 4.29933 5.37548C4.29933 4.59156 4.94717 3.97562 5.7717 3.97562C6.59623 3.97562 7.24407 4.59156 7.24407 5.37548C7.24407 6.15941 6.59623 6.77535 5.7717 6.77535ZM10.1299 6.77535C9.30539 6.77535 8.65755 6.15941 8.65755 5.37548C8.65755 4.59156 9.30539 3.97562 10.1299 3.97562C10.9544 3.97562 11.6023 4.59156 11.6023 5.37548C11.6023 6.15941 10.9544 6.77535 10.1299 6.77535ZM14.4881 6.77535C13.6636 6.77535 13.0158 6.15941 13.0158 5.37548C13.0158 4.59156 13.6636 3.97562 14.4881 3.97562C15.3127 3.97562 15.9605 4.59156 15.9605 5.37548C15.9605 6.15941 15.3127 6.77535 14.4881 6.77535ZM48.3527 5.99142C48.3527 6.32739 48.0582 6.60737 47.7048 6.60737H32.2744C31.921 6.60737 31.6265 6.32739 31.6265 5.99142V4.75954C31.6265 4.42357 31.921 4.1436 32.2744 4.1436H47.7048C48.0582 4.1436 48.3527 4.42357 48.3527 4.75954V5.99142Z" fill="#00C5CD"/>
<path d="M21.261 29.9571H6.65511C6.36064 29.9571 6.06616 29.7331 6.06616 29.3971V28.2772C6.06616 27.9973 6.30174 27.7173 6.65511 27.7173H21.261C21.5555 27.7173 21.85 27.9413 21.85 28.2772V29.3971C21.85 29.7331 21.5555 29.9571 21.261 29.9571Z" fill="#00C5CD"/>
<path d="M21.261 34.4366H6.65511C6.36064 34.4366 6.06616 34.2126 6.06616 33.8766V32.7567C6.06616 32.4768 6.30174 32.1968 6.65511 32.1968H21.261C21.5555 32.1968 21.85 32.4208 21.85 32.7567V33.8766C21.85 34.2126 21.5555 34.4366 21.261 34.4366Z" fill="#00C5CD"/>
<path d="M20.5543 25.4774H7.36185C6.65511 25.4774 6.06616 24.9175 6.06616 24.2455V15.5664C6.06616 14.8944 6.65511 14.3345 7.36185 14.3345H20.4954C21.2021 14.3345 21.7911 14.8944 21.7911 15.5664V24.2455C21.85 24.9175 21.261 25.4774 20.5543 25.4774Z" fill="#00C5CD"/>
<path d="M32.2745 37.1806C31.8623 37.2366 31.5089 37.4605 31.2144 37.7405C30.8022 38.1325 30.6255 38.6924 30.6844 39.2524C30.7433 39.8123 31.0378 40.3163 31.5089 40.6522L39.1064 46.2517C41.1677 47.7635 43.8179 48.3235 46.3504 47.8195L50.0608 47.0356C52.0632 46.5877 53.7123 45.4678 54.8313 43.8439C55.8914 42.2201 56.2448 40.2603 55.8325 38.4124L54.1834 31.4131C53.9479 30.3492 52.8289 29.7333 51.7687 29.9573C51.062 30.1252 50.532 30.5732 50.2964 31.1891L49.7663 32.309L49.4718 31.0212C49.2363 29.9573 48.1173 29.3413 47.0572 29.5653C46.3504 29.7333 45.8204 30.1812 45.5848 30.7972L45.1136 32.0291L44.8191 30.6852C44.5836 29.6213 43.4646 29.0054 42.4045 29.2293C41.6977 29.3973 41.1677 29.8453 40.9321 30.4612L40.4609 31.6931L38.3996 22.9019C38.2818 22.398 37.9873 21.95 37.5162 21.6701C37.045 21.3901 36.515 21.2781 35.9849 21.3901C34.8659 21.6141 34.2181 22.678 34.4537 23.6859L37.9285 38.4124C37.9873 38.6924 37.8696 38.9724 37.634 39.1404C37.3984 39.3084 37.1039 39.3084 36.8094 39.1404L33.8647 37.4045C33.3935 37.1246 32.8046 37.0686 32.2745 37.1806Z" fill="#00C5CD"/>
<path d="M42.1098 15.5106C41.6976 15.2306 41.1086 15.3986 40.873 15.7906C40.5786 16.1825 40.7552 16.7425 41.1675 16.9665C44.3478 18.8703 45.2901 22.9019 43.2877 25.9256C42.9932 26.3176 43.1699 26.8775 43.5822 27.1015C43.8178 27.2135 44.0534 27.2695 44.2889 27.2135C44.5245 27.1575 44.7012 27.0455 44.8779 26.8215C47.4104 23.0699 46.1736 17.9744 42.1098 15.5106Z" fill="#00C5CD"/>
<path d="M40.2251 18.4217C39.8128 18.1418 39.2238 18.3098 38.9883 18.7017C38.6938 19.0937 38.8705 19.6536 39.2827 19.8776C40.814 20.7735 41.2263 22.6773 40.284 24.1332C39.9895 24.5252 40.1662 25.0851 40.5784 25.3091C40.814 25.4211 41.0496 25.4771 41.2852 25.4211C41.5207 25.3651 41.6974 25.2531 41.8741 25.0291C43.2876 22.7893 42.5809 19.8216 40.2251 18.4217Z" fill="#00C5CD"/>
<path d="M29.2118 19.542C29.5063 19.15 29.3296 18.5901 28.9173 18.3661C28.505 18.0861 27.9161 18.2541 27.6805 18.6461C25.0891 22.5097 26.3259 27.6052 30.3897 30.013C30.6253 30.1249 30.8608 30.1809 31.0964 30.1249C31.332 30.069 31.5087 29.957 31.6854 29.733C31.9798 29.341 31.8032 28.7811 31.3909 28.5571C28.1517 26.5973 27.2094 22.5657 29.2118 19.542Z" fill="#00C5CD"/>
<path d="M32.2743 21.334C32.5688 20.942 32.3921 20.382 31.9798 20.1581C31.5676 19.8781 30.9786 20.0461 30.743 20.438C29.2707 22.6778 29.9774 25.6455 32.3332 27.1014C32.5688 27.2134 32.8044 27.2694 33.0399 27.2134C33.2755 27.1574 33.4522 27.0454 33.6289 26.8214C33.9234 26.4295 33.7467 25.8695 33.3344 25.6455C31.8032 24.6936 31.332 22.7898 32.2743 21.334Z" fill="#00C5CD"/>
</svg>
