<svg width="58" height="48" viewBox="0 0 58 48" fill="none" xmlns="http://www.w3.org/2000/svg">
<path d="M53.7748 21.4137C53.473 21.1267 53.3932 20.6771 53.5776 20.304C54.2914 18.8574 54.6535 17.3028 54.6535 15.6832C54.6535 9.91795 49.9633 5.22773 44.1981 5.22773C41.8119 5.22773 39.5625 6.01331 37.6948 7.49942C37.4862 7.66575 37.2172 7.73656 36.9534 7.69427C36.6896 7.65245 36.4563 7.50179 36.3094 7.2789C33.3049 2.72127 28.2592 0 22.8119 0C13.902 0 6.65347 7.24849 6.65347 16.1584C6.65347 16.6603 6.67914 17.1831 6.72951 17.7135C6.76706 18.1093 6.55415 18.4872 6.19534 18.6597C2.43184 20.4723 0 24.3403 0 28.5149C0 34.542 4.90361 39.4456 10.9307 39.4456H17.1089V21.8462V18.5347C17.1089 16.9621 18.3878 15.6832 19.9604 15.6832H37.0694C38.642 15.6832 39.9208 16.9621 39.9208 18.5347V21.8462V39.4456H46.5743C52.3396 39.4456 57.0298 34.7554 57.0298 28.9901C57.0298 26.1002 55.8735 23.4093 53.7748 21.4137Z" fill="#00C5CD"/>
<path d="M38.02 22.812H19.0101V42.7724H38.02V22.812Z" fill="#00C5CD"/>
<path d="M37.0695 17.584H19.9606C19.4364 17.584 19.0101 18.0103 19.0101 18.5345V20.8955H38.02V18.5345C38.02 18.0103 37.5937 17.584 37.0695 17.584Z" fill="#00C5CD"/>
<path d="M19.0101 47.0495C19.0101 47.5737 19.4364 48 19.9606 48H37.0695C37.5937 48 38.02 47.5737 38.02 47.0495V44.6885H19.0101V47.0495Z" fill="#00C5CD"/>
</svg>
