<svg width="49" height="48" viewBox="0 0 49 48" fill="none" xmlns="http://www.w3.org/2000/svg">
<path d="M42.921 7.94527C34.907 6.28888 29.0336 3.75254 24.5025 0C19.9853 3.74574 14.1093 6.28225 6.08392 7.94527C4.82331 22.533 11.0143 34.4476 24.5025 43.3626C37.9859 34.4476 44.1772 22.5354 42.921 7.94527ZM24.827 39.2969C24.7243 39.3628 24.6122 39.3934 24.5048 39.3934C24.3904 39.3934 24.2784 39.3628 24.1757 39.2969C13.2459 32.1581 8.27787 22.5516 9.41992 10.7286C9.45026 10.4698 9.64169 10.2533 9.89848 10.1992C16.2039 8.93338 20.7165 6.97582 24.1152 4.04888C24.337 3.85595 24.6661 3.85595 24.8856 4.04888C28.3032 6.98287 32.8273 8.94042 39.1142 10.1992C39.378 10.2533 39.5695 10.4698 39.5975 10.7286C40.7414 22.5468 35.7686 32.1533 24.827 39.2969ZM9.45448 29.7253C9.82565 30.3747 10.2249 31.0194 10.6497 31.6523V41.6943C10.6497 42.026 10.3813 42.2966 10.0521 42.2966H5.20578C4.94199 43.4777 3.89616 44.3624 2.64726 44.3624C1.18824 44.3624 0 43.1648 0 41.6943C0 40.2237 1.18824 39.0261 2.64726 39.0261C3.89616 39.0261 4.94199 39.9108 5.20578 41.0919H9.45448V29.7253ZM17.0155 45.3436C17.0155 46.8071 15.832 48 14.3683 48C12.9092 48 11.721 46.8071 11.721 45.3436C11.721 44.0778 12.5988 43.019 13.7707 42.7484V35.7253C14.1582 36.17 14.5527 36.6053 14.9659 37.0382V42.7486C16.1425 43.0191 17.0155 44.0801 17.0155 45.3436ZM49 41.6944C49 43.1649 47.8234 44.3625 46.3714 44.3625C45.1155 44.3625 44.065 43.4778 43.7965 42.2967H38.9549C38.6211 42.2967 38.3573 42.0261 38.3573 41.6944V31.6476C38.7821 31.0147 39.1813 30.3771 39.5525 29.7253V41.0918H43.7965C44.065 39.9107 45.1178 39.026 46.3714 39.026C47.8211 39.026 49 40.2239 49 41.6944ZM37.2813 45.3436C37.2813 46.8071 36.0931 48 34.6341 48C33.1704 48 31.9868 46.8071 31.9868 45.3436C31.9868 44.0778 32.8599 43.019 34.0364 42.7484V37.0381C34.4496 36.6052 34.8488 36.1699 35.2317 35.7252V42.7483C36.4012 43.0189 37.2813 44.0801 37.2813 45.3436ZM24.5025 5.28902C21.0732 8.10772 16.6193 10.03 10.5726 11.2887C9.65283 22.3046 14.3311 31.316 24.5025 38.0735C34.6739 31.3094 39.3658 22.298 38.4437 11.2887C32.4048 10.037 27.9459 8.11476 24.5025 5.28902ZM33.9335 18.3191L23.1949 29.1423C23.0805 29.2576 22.9311 29.3235 22.77 29.3235C22.6136 29.3235 22.4595 29.2576 22.3522 29.1423L15.078 21.7993C14.8515 21.5641 14.8515 21.1853 15.085 20.9499L18.1804 17.823C18.4139 17.5878 18.7967 17.5878 19.0302 17.823L22.7723 21.5805L29.9742 14.3219C30.0886 14.2066 30.238 14.1478 30.399 14.1478C30.5601 14.1478 30.7095 14.209 30.8239 14.3219L33.938 17.4653C34.1668 17.7053 34.1669 18.0838 33.9335 18.3191ZM30.3944 15.6016L32.6659 17.8909L22.7699 27.8648L16.3527 21.3778L18.6054 19.1003L22.3522 22.8577C22.5856 23.093 22.9615 23.093 23.195 22.8577L30.3944 15.6016Z" fill="#00C5CD"/>
</svg>
