<svg width="46" height="48" viewBox="0 0 46 48" fill="none" xmlns="http://www.w3.org/2000/svg">
<path fill-rule="evenodd" clip-rule="evenodd" d="M39.364 24.9763C39.6069 23.8327 39.7344 22.6449 39.7344 21.4271C39.7344 12.0896 32.2216 4.52197 22.9564 4.52197V21.4271H6.17839C6.17839 23.7364 6.63836 25.9373 7.47071 27.9418H11.485V30.8469H17.8049V37.4156L18.6751 37.7787C19.3859 37.9673 20.1147 38.1097 20.8595 38.204C19.8041 36.4646 19.1948 34.4221 19.1948 32.2353C19.1948 25.9076 24.2864 20.7771 30.5669 20.7771C34.1113 20.775 37.2791 22.4122 39.364 24.9763ZM15.9256 2.68231C17.3931 2.23891 18.8188 2.06237 20.5173 2.06237V18.9675L13.8386 18.9695V10.7296C15.0194 10.533 15.9233 9.49573 15.9233 8.2498L15.9256 2.68231ZM13.1896 18.9696H3.7373C3.7373 15.9922 4.50193 13.1934 5.84401 10.7635H7.70379L13.1896 18.9696ZM36.8753 41.7633L41.2858 47.0561C41.7757 47.6439 42.4189 47.963 43.1795 47.9971C43.9401 48.0312 44.6072 47.7683 45.1468 47.2266L45.2324 47.1404C45.7721 46.5967 46.0309 45.9245 45.9971 45.1581C45.9632 44.3917 45.6466 43.7437 45.0632 43.2501L39.852 38.8403C39.0476 39.9899 38.0382 40.9809 36.8753 41.7633ZM12.2023 9.11277V14.5376L8.57424 9.11277H1.44382C0.971905 9.11277 0.587592 8.72555 0.587592 8.25005V0.86272C0.587592 0.387225 0.9719 0 1.44382 0H13.4312C13.9031 0 14.2874 0.38722 14.2874 0.86272V8.25005C14.2874 8.72555 13.9031 9.11277 13.4312 9.11277H12.2023ZM7.43724 1.53078H3.11826C2.74391 1.53078 2.43927 1.83574 2.43927 2.21291C2.43927 2.59009 2.74193 2.89705 3.11826 2.89705H7.43724C7.81159 2.89705 8.11623 2.59209 8.11623 2.21291C8.11424 1.83773 7.81157 1.53078 7.43724 1.53078ZM7.43724 6.12122C7.81159 6.12122 8.11623 6.42819 8.11623 6.80535C8.11623 7.18254 7.81157 7.48749 7.43724 7.48749H3.11826C2.74391 7.48749 2.43927 7.18052 2.43927 6.80535C2.43927 6.42817 2.74193 6.12122 3.11826 6.12122H7.43724ZM11.7562 3.82597C12.1306 3.82597 12.4352 4.13093 12.4352 4.50811C12.4352 4.88528 12.1325 5.19224 11.7562 5.19224H3.11846C2.74411 5.19224 2.43947 4.88728 2.43947 4.50811C2.43947 4.13092 2.74214 3.82597 3.11846 3.82597H11.7562ZM30.5651 22.4266C35.9414 22.4266 40.2983 26.8184 40.2983 32.2335C40.2983 37.6506 35.9395 42.0405 30.5651 42.0405C25.1908 42.0405 20.8319 37.6487 20.8319 32.2335C20.8319 26.8164 25.1887 22.4266 30.5651 22.4266ZM30.5651 26.7923C32.0565 26.7923 33.4065 27.4002 34.3842 28.3853C35.3619 29.3704 35.9653 30.7307 35.9653 32.2334C35.9653 33.7362 35.3619 35.0964 34.3842 36.0815C33.4065 37.0667 32.0565 37.6746 30.5651 37.6746C29.0736 37.6746 27.7236 37.0667 26.7459 36.0815C25.7682 35.0964 25.1649 33.7362 25.1649 32.2334C25.1649 30.7307 25.7682 29.3704 26.7459 28.3853C27.7236 27.4002 29.0736 26.7923 30.5651 26.7923ZM25.587 27.2176C26.8614 25.9336 28.6197 25.1411 30.5631 25.1411C32.5065 25.1411 34.2667 25.9356 35.5391 27.2176C36.8135 28.4997 37.6001 30.2732 37.6001 32.2314C37.6001 34.1895 36.8115 35.9631 35.5391 37.2451C34.2648 38.5292 32.5065 39.3217 30.5631 39.3217C28.6197 39.3217 26.8594 38.5272 25.587 37.2451C24.3127 35.9611 23.5261 34.1895 23.5261 32.2314C23.5261 30.2752 24.3146 28.5017 25.587 27.2176ZM3.52647 26.688H0V43.3445H3.52448V26.688H3.52647ZM16.1648 32.4965V43.3425H12.6403V32.4965H16.1648ZM9.84638 29.5934V43.3444H6.31991V29.5934H9.84638Z" fill="#20CCD3"/>
</svg>
