<svg width="107" height="107" viewBox="0 0 107 107" fill="none" xmlns="http://www.w3.org/2000/svg">
<path fill-rule="evenodd" clip-rule="evenodd" d="M34.2915 7.25431C36.6064 7.02458 38.9169 7.06876 41.1788 7.36476L46.6347 0.273881L57.8162 5.11156L56.3848 13.9432C58.1519 15.3878 59.76 17.0402 61.1782 18.887L70.0492 17.7339L74.5332 29.0621L67.2791 34.293C67.5088 36.6081 67.4646 38.9187 67.1687 41.1807L74.2592 46.6369L69.4218 57.8189L60.5906 56.3875C59.146 58.1547 57.4937 59.7629 55.647 61.181L56.8 70.0525L45.4724 74.5367L40.2417 67.2823C37.9268 67.512 35.6163 67.4678 33.3544 67.1718L27.8984 74.2627L16.717 69.425L18.1484 60.5934C16.3812 59.1488 14.7731 57.4964 13.355 55.6497L4.48402 56.8027L0 45.479L7.25407 40.2481C7.02435 37.933 7.06853 35.6225 7.36452 33.3605L0.273981 27.8998L5.11142 16.7178L13.9426 18.1492C15.3872 16.382 17.0395 14.7694 18.8861 13.3557L17.7331 4.48424L29.0608 0L34.2915 7.25431ZM31.9721 78.1371L35.2015 83.7347C35.5992 84.424 35.6036 85.2368 35.1971 85.9305H35.2015C34.8084 86.6109 34.0838 87.0306 33.3019 87.0306H31.7424V89.8361C31.7424 92.4824 33.9028 94.6473 36.5534 94.6473H51.5126C52.4359 94.6473 53.1825 95.3939 53.1825 96.3173C53.1825 97.2407 52.4359 97.9874 51.5126 97.9874L36.5579 97.983C32.065 97.983 28.4071 94.3248 28.4071 89.8317V87.0263H26.8476C26.0657 87.0263 25.35 86.6154 24.9524 85.9262H24.9479C24.5459 85.2326 24.5459 84.4241 24.9479 83.7304L28.2878 77.9693C29.2597 76.6306 31.1813 76.772 31.9721 78.1371ZM86.1834 38.0088C86.9609 39.3563 88.8915 39.5241 89.8722 38.1723L93.2121 32.4111H93.2076C94.0691 30.9399 92.9779 29.1152 91.3124 29.1152H89.7529V14.9866C89.7529 10.4935 86.0949 6.83542 81.6021 6.83542H66.6429C65.7196 6.83542 64.973 7.58207 64.973 8.50547C64.973 9.42888 65.7196 10.1755 66.6429 10.1755H81.6021C84.2483 10.1755 86.4131 12.336 86.4131 14.9867V29.1153H84.8536C83.2058 29.1153 82.0925 30.9134 82.9539 32.4112L86.1834 38.0088ZM87.0272 61.6933L85.5384 55.7997H77.2595L75.7707 61.6933C74.2509 62.1263 72.8019 62.7316 71.4456 63.487L66.2238 60.3723L60.3702 66.2262L63.4847 71.4483C62.7293 72.8002 62.1241 74.2494 61.6911 75.7691L55.7978 77.258V85.5373L61.6911 87.0262C62.1241 88.5461 62.7293 89.9951 63.4847 91.3514L60.3702 96.5735L66.2238 102.427L71.4456 99.3127C72.7975 100.068 74.2466 100.673 75.7707 101.106L77.2595 107H85.5384L87.0272 101.106C88.547 100.673 89.9959 100.068 91.3522 99.3127L96.5741 102.427L102.428 96.5735L99.3131 91.3514C100.069 89.9995 100.674 88.5504 101.107 87.0262L107 85.5373V77.258L101.107 75.7691C100.674 74.2493 100.069 72.8002 99.3131 71.4439L102.428 66.2218L96.5741 60.3679L91.3522 63.4826C89.9959 62.7315 88.5468 62.1263 87.0272 61.6933ZM81.3989 68.475C74.2597 68.475 68.4766 74.2626 68.4766 81.3979C68.4766 88.5375 74.2639 94.3209 81.3989 94.3209C88.538 94.3209 94.3212 88.5333 94.3212 81.3979C94.3212 74.2628 88.5339 68.475 81.3989 68.475ZM77.6834 78.3139C78.1782 77.6114 78.8365 77.0371 79.5963 76.6394C83.1174 74.8104 87.4247 77.3552 87.4247 81.402C87.4247 85.6301 82.7551 88.1572 79.2253 85.9481C79.9233 85.122 79.6582 83.8275 78.6598 83.3635L76.2521 82.2414C74.9091 81.5433 73.6456 82.6125 73.7517 83.8318L73.9947 86.6195C74.0963 87.7903 75.3509 88.4795 76.3847 87.9846C79.835 90.9668 84.995 90.7813 88.2202 87.5517C91.6174 84.1542 91.6174 78.645 88.2202 75.2429C84.3855 71.4081 78.0504 71.9956 74.954 76.3871C74.4239 77.1382 74.605 78.1808 75.3605 78.711C76.1115 79.2456 77.1533 79.065 77.6834 78.3139ZM30.2669 19.5895C20.5036 23.4553 15.724 34.5087 19.5891 44.2727C23.4547 54.0365 34.5076 58.8164 44.2711 54.951C54.0345 51.0852 58.8141 40.0318 54.949 30.2678C51.0789 20.504 40.0305 15.7241 30.2669 19.5895ZM44.1031 50.94V37.2706H50.9374L37.2687 23.6012L23.6 37.2706H30.4343V50.94H44.1031Z" fill="#00C5CD"/>
</svg>
