<svg width="25" height="39" viewBox="0 0 25 39" fill="none" xmlns="http://www.w3.org/2000/svg">
<g clip-path="url(#clip0_1049_52)">
<path d="M16.1585 2.47C19.6429 2.47 22.5174 5.28667 22.5174 8.79667V26.5633C22.5174 32.0667 18.0314 36.53 12.5 36.53C6.96864 36.53 2.48258 32.0667 2.48258 26.5633V8.79667C2.48258 5.33 5.31359 2.47 8.84146 2.47H16.1585ZM16.1585 0H8.84146C3.96341 0 0 3.94333 0 8.79667V26.5633C0 33.41 5.57491 39 12.5 39C19.4251 39 25 33.41 25 26.5633V8.79667C25 3.94333 21.0366 0 16.1585 0Z" fill="#00C5CD"/>
<path d="M12.5 20.5835C12.3693 20.5835 12.1951 20.5402 12.0645 20.4535L8.23171 17.7669C7.88328 17.5502 7.79617 17.0735 8.05749 16.7269C8.27526 16.3802 8.75436 16.2935 9.10279 16.5535L12.5 18.9369L15.8972 16.5535C16.2456 16.3369 16.6812 16.3802 16.9425 16.7269C17.1603 17.0735 17.1167 17.5069 16.7683 17.7669L12.9355 20.4535C12.8049 20.5402 12.6307 20.5835 12.5 20.5835Z" fill="#00C5CD"/>
<path d="M12.5436 26.3467C12.4129 26.3467 12.2387 26.3034 12.108 26.2167L8.27526 23.53C7.92683 23.3134 7.83972 22.8367 8.10104 22.49C8.31881 22.1434 8.79791 22.0567 9.14634 22.3167L12.5436 24.7L15.9408 22.3167C16.2892 22.1 16.7247 22.1434 16.9861 22.49C17.2038 22.8367 17.1603 23.27 16.8118 23.53L12.9791 26.2167C12.8484 26.3034 12.7178 26.3467 12.5436 26.3467Z" fill="#00C5CD"/>
<path d="M12.5 31.98C12.3693 31.98 12.1951 31.9367 12.0645 31.85L8.23171 29.1633C7.88328 28.9467 7.79617 28.47 8.05749 28.1233C8.31882 27.7767 8.75436 27.69 9.10279 27.95L12.5 30.3333L15.8972 27.95C16.2456 27.7333 16.6812 27.7767 16.9425 28.1233C17.1603 28.47 17.1167 28.9033 16.7683 29.1633L12.9355 31.85C12.8049 31.9367 12.6307 31.98 12.5 31.98Z" fill="#00C5CD"/>
<path d="M12.5 13.5634C11.6725 13.5634 11.0192 12.9134 11.0192 12.09V8.84003C11.0192 8.0167 11.6725 7.3667 12.5 7.3667C13.3275 7.3667 13.9808 8.0167 13.9808 8.84003V12.09C13.9808 12.9134 13.3275 13.5634 12.5 13.5634Z" fill="#00C5CD"/>
</g>
<defs>
<clipPath id="clip0_1049_52">
<rect width="25" height="39" fill="white"/>
</clipPath>
</defs>
</svg>
