<svg width="50" height="48" viewBox="0 0 50 48" fill="none" xmlns="http://www.w3.org/2000/svg">
<path d="M37.3571 9.24001C36.4464 4.02858 31.2499 0 24.9999 0C18.7499 0 13.5356 4.01143 12.6428 9.24001C6.51779 9.94287 1.78564 14.5029 1.78564 20.0057C1.78564 25.9886 7.39279 30.8572 14.2856 30.8572H35.7142C42.6071 30.8572 48.2142 25.9886 48.2142 20.0057C48.2142 14.5029 43.4821 9.94287 37.3571 9.24001ZM28.9642 25.1829C28.6071 25.5429 28.1428 25.7143 27.6606 25.7143C27.2142 25.7143 26.7856 25.56 26.4285 25.2515C25.6428 24.5315 24.3035 24.5315 23.5178 25.2515C22.8035 25.9029 21.6785 25.8686 20.9999 25.1829C20.3214 24.4972 20.3571 23.4172 21.0714 22.7657C23.2321 20.8115 26.7321 20.8115 28.8749 22.7657C29.5892 23.4172 29.6249 24.4972 28.9464 25.1829H28.9642ZM32.9821 21.5486C32.6249 21.9086 32.1606 22.08 31.6785 22.08C31.2321 22.08 30.8035 21.9257 30.4464 21.6172C28.9821 20.2972 27.0535 19.5772 24.9821 19.5772C22.9106 19.5772 20.9642 20.2972 19.5178 21.6172C18.8035 22.2686 17.6785 22.2343 16.9999 21.5486C16.3214 20.8629 16.3571 19.7829 17.0714 19.1315C19.1964 17.2114 21.9999 16.1486 24.9999 16.1486C27.9999 16.1486 30.8035 17.2114 32.9285 19.1315C33.6428 19.7829 33.6785 20.8629 32.9999 21.5486H32.9821ZM36.9999 17.9143C36.6428 18.2743 36.1785 18.4457 35.6964 18.4457C35.2499 18.4457 34.8214 18.2914 34.4642 17.9829C31.9285 15.6857 28.5714 14.4343 24.9821 14.4343C21.3928 14.4343 18.0178 15.7029 15.4999 17.9829C14.7856 18.6343 13.6606 18.6 12.9821 17.9143C12.3035 17.2286 12.3392 16.1314 13.0535 15.4972C16.2499 12.6 20.4821 11.0057 24.9999 11.0057C29.5178 11.0057 33.7499 12.6 36.9464 15.4972C37.6606 16.1486 37.6964 17.2286 37.0178 17.9143H36.9999Z" fill="#00C5CD"/>
<path d="M5.35714 48.0001C8.31581 48.0001 10.7143 45.6975 10.7143 42.8572C10.7143 40.0169 8.31581 37.7144 5.35714 37.7144C2.39847 37.7144 0 40.0169 0 42.8572C0 45.6975 2.39847 48.0001 5.35714 48.0001Z" fill="#00C5CD"/>
<path d="M25 48.0001C27.9586 48.0001 30.3571 45.6975 30.3571 42.8572C30.3571 40.0169 27.9586 37.7144 25 37.7144C22.0413 37.7144 19.6428 40.0169 19.6428 42.8572C19.6428 45.6975 22.0413 48.0001 25 48.0001Z" fill="#00C5CD"/>
<path d="M44.6428 48.0001C47.6015 48.0001 49.9999 45.6975 49.9999 42.8572C49.9999 40.0169 47.6015 37.7144 44.6428 37.7144C41.6841 37.7144 39.2856 40.0169 39.2856 42.8572C39.2856 45.6975 41.6841 48.0001 44.6428 48.0001Z" fill="#00C5CD"/>
<path d="M25.0001 41.1427C24.0179 41.1427 23.2144 40.3713 23.2144 39.4284V34.2856C23.2144 33.3427 24.0179 32.5713 25.0001 32.5713C25.9822 32.5713 26.7858 33.3427 26.7858 34.2856V39.4284C26.7858 40.3713 25.9822 41.1427 25.0001 41.1427Z" fill="#00C5CD"/>
<path d="M14.2857 44.5713H8.92854C7.94639 44.5713 7.14282 43.7999 7.14282 42.857C7.14282 41.9142 7.94639 41.1427 8.92854 41.1427H12.5V34.2856C12.5 33.3427 13.3035 32.5713 14.2857 32.5713C15.2678 32.5713 16.0714 33.3427 16.0714 34.2856V42.857C16.0714 43.7999 15.2678 44.5713 14.2857 44.5713Z" fill="#00C5CD"/>
<path d="M41.0714 44.5713H35.7143C34.7322 44.5713 33.9286 43.7999 33.9286 42.857V34.2856C33.9286 33.3427 34.7322 32.5713 35.7143 32.5713C36.6964 32.5713 37.5 33.3427 37.5 34.2856V41.1427H41.0714C42.0536 41.1427 42.8572 41.9142 42.8572 42.857C42.8572 43.7999 42.0536 44.5713 41.0714 44.5713Z" fill="#00C5CD"/>
</svg>
