<svg width="108" height="127" viewBox="0 0 108 127" fill="none" xmlns="http://www.w3.org/2000/svg">
<path fill-rule="evenodd" clip-rule="evenodd" d="M67.8606 106.716C56.7527 106.716 47.746 97.5986 47.746 86.3537C47.746 75.1091 56.7524 65.9917 67.8606 65.9917C78.9684 65.9917 87.9751 75.1088 87.9751 86.3537C87.9751 97.5983 78.9688 106.716 67.8606 106.716ZM33.7897 110.434H0V105.713H35.9236L34.7675 107.414C34.1479 108.332 33.8216 109.38 33.7897 110.434ZM51.4694 19.7605V12.4602H38.6625V1.33202C38.6625 0.594888 38.0685 0 37.3467 0C36.6185 0 36.0309 0.601344 36.0309 1.33202L36.0245 12.4602H23.2177V19.7605H51.4694ZM35.9095 103.043H21.6974V88.2419H11.3625V103.043H6.50791L6.50152 41.1422H41.0957V53.0204C40.4314 53.2597 39.8054 53.6347 39.2561 54.1326C37.7678 55.484 36.3754 56.9389 35.0914 58.4907C33.4754 60.437 33.3413 63.1915 34.7657 65.2866L36.6308 68.0282C36.7074 68.1381 36.7074 68.2092 36.6435 68.3256C35.002 71.1512 33.7564 74.1968 32.9388 77.3651C32.9069 77.4944 32.8558 77.5397 32.7217 77.5656L29.6939 78.1346C27.1901 78.6066 25.3505 80.6887 25.1716 83.2623C25.1014 84.2904 25.0631 85.3185 25.0631 86.3466C25.0631 87.3747 25.1014 88.4028 25.1716 89.431C25.3505 92.0045 27.1901 94.093 29.6939 94.5586L32.7217 95.1212C32.8494 95.147 32.9005 95.1923 32.9325 95.3216C33.6287 98.0115 34.6257 100.599 35.9095 103.043ZM58.9936 47.9836V15.2398H89.3411V53.8683L86.8244 55.6206C86.7158 55.6982 86.6456 55.6982 86.5306 55.6335C83.7393 53.9718 80.7307 52.7109 77.5946 51.8833C77.4668 51.8509 77.4221 51.7992 77.3966 51.6634L76.6876 47.7772C76.234 45.2813 74.2284 43.4385 71.7309 43.2057C70.4407 43.0893 69.1504 43.0311 67.8601 43.0311C66.5698 43.0311 65.2732 43.0893 63.9893 43.2057C61.4919 43.432 59.4861 45.2813 59.0327 47.7772L58.9936 47.9836ZM77.4794 33.5383V38.2845H82.1679V33.5383H77.4794ZM64.2957 33.5383V38.2845H68.9841V33.5383H64.2957ZM77.4794 21.8606V26.6067H82.1679V21.8606H77.4794ZM64.2957 21.8606V26.6067H68.9841V21.8606H64.2957ZM18.4399 38.3621H43.8492V42.8626H49.6363C50.5689 42.8626 51.3291 43.632 51.3291 44.5762C51.3291 45.5202 50.569 46.2897 49.6363 46.2897H43.8492V52.7688C44.6413 52.8981 45.4205 53.2021 46.1167 53.687L48.8953 55.6269C49.0038 55.7045 49.0741 55.7045 49.1891 55.6398C51.4183 54.3143 53.7881 53.2409 56.2472 52.4391V22.5408H18.4399L18.4399 38.3621ZM25.051 33.7583C24.1184 33.7583 23.3583 32.9889 23.3583 32.0448C23.3583 31.1006 24.1184 30.3312 25.051 30.3312H49.6427C50.5753 30.3312 51.3354 31.1006 51.3354 32.0448C51.3354 32.9889 50.5753 33.7583 49.6427 33.7583H25.051ZM11.6947 76.4092V81.1553H16.3832V76.4092H11.6947ZM11.6947 63.3736V68.1197H16.3832V63.3736H11.6947ZM21.4613 50.3315V55.0777H26.1497V50.3315H21.4613ZM31.2214 50.3315V55.0777H35.9098V50.3315H31.2214ZM11.6956 50.3315V55.0777H16.384V50.3315H11.6956ZM57.9029 87.0133L63.7474 94.2941C64.5842 95.3416 66.1683 95.5291 67.203 94.6627C67.2094 94.6562 67.2158 94.6497 67.2222 94.6433C67.3755 94.5269 67.5224 94.3846 67.6502 94.2294L71.9808 88.8303L73.4947 86.9487L77.8253 81.5496C78.6748 80.4891 78.5152 78.9048 77.4676 78.0449C76.4201 77.1849 74.855 77.3466 74.0056 78.407L69.6813 83.7933L69.6749 83.7997L69.6685 83.8062L68.1547 85.6878L66.1171 88.2224C66.0021 88.3647 65.8488 88.4422 65.6636 88.4422C65.4847 88.4422 65.325 88.3647 65.2101 88.2224L61.7161 83.8643C60.8666 82.8038 59.3016 82.6422 58.2541 83.5022C57.213 84.3751 57.047 85.9529 57.9029 87.0133ZM58.7843 54.4698C55.8524 55.2393 53.0739 56.4226 50.5253 57.9357C49.5289 58.5306 48.3536 58.4853 47.4018 57.8258L44.6232 55.8859C43.499 55.1035 42.0427 55.2005 41.0271 56.1252C39.6347 57.3925 38.3253 58.7634 37.118 60.2183C36.2621 61.2464 36.1918 62.6754 36.9456 63.781L38.8107 66.5226C39.4686 67.486 39.5069 68.6758 38.9193 69.6845C37.4182 72.2645 36.2557 75.0772 35.4955 78.0452C35.2017 79.1768 34.3457 79.9915 33.2088 80.1984L30.1875 80.7675C28.8653 81.0132 27.9072 82.0995 27.8178 83.4574C27.7539 84.4143 27.7156 85.3779 27.7156 86.3542C27.7156 87.3305 27.7475 88.294 27.8178 89.251C27.9136 90.6088 28.8717 91.6952 30.1875 91.9408L33.2088 92.5034C34.3458 92.7168 35.2082 93.525 35.4955 94.6566C36.2556 97.6246 37.4181 100.437 38.9193 103.017C39.5069 104.026 39.4622 105.216 38.8107 106.179L36.9456 108.921C36.1918 110.027 36.2621 111.455 37.118 112.484C38.3253 113.938 39.6348 115.303 41.0335 116.577C42.0427 117.495 43.5054 117.592 44.6296 116.816L47.4081 114.882C48.3599 114.216 49.5352 114.178 50.5317 114.773C53.0803 116.292 55.8588 117.469 58.7907 118.238C59.9085 118.536 60.707 119.402 60.9178 120.553L61.6268 124.433C61.8695 125.752 62.9107 126.709 64.2264 126.832C65.4209 126.942 66.6346 127 67.861 127C69.0874 127 70.301 126.942 71.4955 126.832C72.8113 126.709 73.8525 125.752 74.0951 124.433L74.8042 120.547C75.0149 119.396 75.8134 118.529 76.9312 118.232C79.8631 117.463 82.6416 116.286 85.1902 114.766C86.1867 114.171 87.362 114.216 88.3138 114.876L91.0923 116.809C92.2165 117.592 93.6728 117.495 94.6884 116.57C96.0809 115.303 97.3903 113.932 98.5975 112.477C99.4535 111.449 99.5237 110.02 98.77 108.914L96.9049 106.173C96.247 105.209 96.2087 104.02 96.7963 103.011C98.2974 100.431 99.4599 97.6182 100.22 94.6502C100.514 93.5186 101.37 92.7038 102.507 92.4969L105.528 91.9344C106.85 91.6887 107.808 90.6024 107.898 89.2445C107.962 88.2875 108 87.324 108 86.3477C108 85.3778 107.968 84.4078 107.898 83.4509C107.802 82.093 106.844 81.0067 105.528 80.761L102.507 80.192C101.37 79.9786 100.507 79.1703 100.22 78.0388C99.46 75.0643 98.2974 72.2581 96.7963 69.6781C96.2086 68.6694 96.2534 67.4797 96.9049 66.5161L98.77 63.7679C99.5237 62.6622 99.4535 61.2333 98.5975 60.2052C97.3903 58.7503 96.0808 57.386 94.6884 56.1121C93.6728 55.1875 92.2165 55.0969 91.0923 55.8729L88.3138 57.8127C87.3621 58.4723 86.1867 58.5175 85.1902 57.9227C82.6416 56.4031 79.8631 55.2263 76.9312 54.4567C75.8134 54.1593 75.0149 53.2929 74.8042 52.142L74.0951 48.2558C73.8524 46.9367 72.8113 45.9797 71.4955 45.8569C70.3011 45.747 69.0874 45.6888 67.861 45.6888C66.6346 45.6888 65.4209 45.747 64.2264 45.8569C62.9106 45.9797 61.8695 46.9367 61.6268 48.2558L60.9178 52.142C60.707 53.3058 59.9022 54.1725 58.7843 54.4698Z" fill="#00C5CD"/>
</svg>
