<svg width="71" height="47" viewBox="0 0 71 47" fill="none" xmlns="http://www.w3.org/2000/svg">
<g clip-path="url(#clip0_1594_884)">
<path d="M66.9219 24.0933C66.6393 25.2678 66.1778 26.3672 65.5722 27.3797L67.8621 30.8513L64.8627 33.8543L61.3903 31.563C60.3808 32.1648 59.2791 32.6277 58.1082 32.9343L57.2949 37.0077H56.7411V28.2823C62.4285 27.1078 64.7242 19.5975 59.7117 15.4084C59.6887 15.4084 58.6158 14.419 56.7411 14.0024V5.25391H57.2949L58.1082 9.34464C59.2964 9.62815 60.3981 10.091 61.4076 10.6986L64.8627 8.40151L67.8621 11.4276L65.5722 14.8934C66.1778 15.9118 66.6393 17.0111 66.9219 18.1857L71 19.0073V23.2716L66.9219 24.0933Z" fill="#00C5CD"/>
<path d="M31.171 26.801C31.5978 26.3729 31.5978 25.6785 31.171 25.2504C30.9576 25.0363 30.6807 24.9321 30.3981 24.9321C30.1154 24.9321 29.8385 25.0363 29.6251 25.2504C29.1983 25.6785 29.1983 26.3729 29.6251 26.801C30.052 27.2292 30.7441 27.2292 31.171 26.801Z" fill="#00C5CD"/>
<path d="M45.3837 15.1422V13.985H41.9863V11.1267C41.9863 10.8085 41.7325 10.5481 41.4094 10.5481H38.5657V7.14592H37.4121V10.5481H37.2333V15.2927C38.1908 15.553 38.9003 16.4209 38.9003 17.4566C38.9003 18.7006 37.8909 19.7074 36.6565 19.7074C35.4221 19.7074 34.4127 18.6949 34.4127 17.4566C34.4127 16.4152 35.1222 15.5473 36.0855 15.2869V10.5423H34.4819V7.14014H33.3283V10.5423H33.236V16.149C33.236 16.3052 33.1725 16.4499 33.0687 16.5598L31.2691 18.3651C31.7651 19.2272 31.6555 20.3439 30.923 21.0787C30.4961 21.5069 29.9366 21.7383 29.3367 21.7383C28.7368 21.7383 28.1716 21.5011 27.7505 21.0787C26.8737 20.1992 26.8737 18.7701 27.7505 17.8964C28.46 17.1847 29.6021 17.0748 30.4557 17.555L32.0881 15.9176V10.5539H30.4038V7.15171H29.2502V10.5539H26.32V7.15171H25.1664V10.5539H22.2362V7.15171H21.0825V10.5539H18.2331C17.9158 10.5539 17.6563 10.8143 17.6563 11.1325V13.9908H14.2646V15.148H17.6563V16.2416H21.7228C21.9824 15.2811 22.8476 14.5694 23.8801 14.5694C25.1202 14.5694 26.1239 15.582 26.1239 16.8202C26.1239 18.0584 25.1145 19.0709 23.8801 19.0709C22.8418 19.0709 21.9766 18.3593 21.717 17.393H17.6563V18.0815H14.2646V19.2387H17.6563V22.1781H14.2646V23.3353H17.6563V26.2804H14.2646V27.4376H17.6563V30.3769H14.2646V31.5341H17.6563V34.3866C17.6563 34.7106 17.9158 34.9652 18.2331 34.9652H21.0825V38.3732H22.2362V34.9652H22.5015V30.2206C21.544 29.9603 20.8345 29.0924 20.8345 28.0567C20.8345 26.8127 21.8439 25.8059 23.0783 25.8059C24.3127 25.8059 25.3221 26.8185 25.3221 28.0567C25.3221 29.0982 24.6126 29.9661 23.6493 30.2264V34.9652H25.1606V38.3732H26.3142V34.9652H26.4988V29.3643C26.4988 29.2081 26.5623 29.0634 26.6661 28.9535L28.4657 27.1483C27.9697 26.2861 28.0793 25.1694 28.8176 24.4346C29.6944 23.5551 31.1191 23.5551 31.9901 24.4346C32.8668 25.3141 32.8668 26.7432 31.9901 27.6169C31.5517 28.0567 30.9749 28.2765 30.4038 28.2765C30.0116 28.2765 29.6309 28.1666 29.279 27.9641L27.6524 29.5958V34.9594H29.2444V38.3674H30.3981V34.9594H33.3283V38.3674H34.4819V34.9594H37.4179V38.3674H38.5715V34.9594H41.4152C41.7382 34.9594 41.992 34.7048 41.992 34.3808V31.5283H45.3895V30.3711H41.992V29.2717H37.9313C37.6717 30.2322 36.8065 30.9439 35.774 30.9439C34.5338 30.9439 33.5302 29.9313 33.5302 28.6931C33.5302 27.4549 34.5396 26.4424 35.774 26.4424C36.8122 26.4424 37.6775 27.154 37.937 28.1203H41.9978V27.4376H45.3952V26.2804H41.9978V23.3353H45.3952V22.1781H41.9978V19.2387H45.3952V18.0815H41.9978V15.1422H45.3952H45.3837Z" fill="#00C5CD"/>
<path d="M23.0725 29.15C23.6746 29.15 24.1627 28.6604 24.1627 28.0565C24.1627 27.4525 23.6746 26.9629 23.0725 26.9629C22.4704 26.9629 21.9824 27.4525 21.9824 28.0565C21.9824 28.6604 22.4704 29.15 23.0725 29.15Z" fill="#00C5CD"/>
<path d="M35.7682 29.7926C36.3703 29.7926 36.8584 29.303 36.8584 28.699C36.8584 28.0951 36.3703 27.6055 35.7682 27.6055C35.1661 27.6055 34.678 28.0951 34.678 28.699C34.678 29.303 35.1661 29.7926 35.7682 29.7926Z" fill="#00C5CD"/>
<path d="M23.8686 17.9137C24.4706 17.9137 24.9587 17.4241 24.9587 16.8201C24.9587 16.2162 24.4706 15.7266 23.8686 15.7266C23.2665 15.7266 22.7784 16.2162 22.7784 16.8201C22.7784 17.4241 23.2665 17.9137 23.8686 17.9137Z" fill="#00C5CD"/>
<path d="M36.6507 18.5558C37.2528 18.5558 37.7409 18.0662 37.7409 17.4622C37.7409 16.8583 37.2528 16.3687 36.6507 16.3687C36.0486 16.3687 35.5605 16.8583 35.5605 17.4622C35.5605 18.0662 36.0486 18.5558 36.6507 18.5558Z" fill="#00C5CD"/>
<path d="M28.5522 18.7181C28.1254 19.1462 28.1254 19.8406 28.5522 20.2687C28.9676 20.6853 29.6828 20.6853 30.0981 20.2687C30.525 19.8406 30.525 19.1462 30.0981 18.7181C29.8905 18.5098 29.6194 18.394 29.3252 18.394C29.0368 18.394 28.7599 18.5098 28.5522 18.7181Z" fill="#00C5CD"/>
<path d="M59.6368 41.6826V44.2169C59.6368 45.756 58.3966 47 56.8623 47H2.77447C1.24015 47 0 45.756 0 44.2169V41.6826H23.4475L24.1512 43.3085H35.4798L36.1835 41.6826H59.631H59.6368Z" fill="#00C5CD"/>
<path d="M55.5876 3.36748V40.5254H51.1865V4.41475H8.45034V40.5254H4.04926V3.36748C4.04926 1.51016 5.55474 0 7.40631 0H52.2247C54.0763 0 55.5876 1.51016 55.5876 3.36748Z" fill="#00C5CD"/>
</g>
<defs>
<clipPath id="clip0_1594_884">
<rect width="71" height="47" fill="white"/>
</clipPath>
</defs>
</svg>
