<svg width="48" height="48" viewBox="0 0 48 48" fill="none" xmlns="http://www.w3.org/2000/svg">
<g clip-path="url(#clip0_1594_847)">
<path fill-rule="evenodd" clip-rule="evenodd" d="M42.288 22.8645C41.5147 22.8645 40.8907 22.2606 40.8907 21.5123C40.8907 20.7639 41.5147 20.16 42.288 20.16C43.0613 20.16 43.6853 20.7639 43.6853 21.5123C43.6853 22.2606 43.0613 22.8645 42.288 22.8645ZM42.288 19.1742C40.9547 19.1742 39.8667 20.2219 39.8667 21.5123C39.8667 22.8026 40.9493 23.8555 42.2827 23.8555C43.616 23.8555 44.704 22.8077 44.704 21.5174C44.704 20.2271 43.6213 19.1794 42.288 19.1742ZM28.2133 22.8645C27.44 22.8645 26.816 22.2606 26.816 21.5123C26.816 20.7639 27.44 20.16 28.2133 20.16C28.9867 20.16 29.6107 20.7639 29.6107 21.5123C29.6107 22.2606 28.9867 22.8645 28.2133 22.8645ZM28.2133 19.1742C26.88 19.1742 25.792 20.2219 25.792 21.5123C25.792 22.8026 26.8747 23.8555 28.208 23.8555C29.5413 23.8555 30.6293 22.8077 30.6293 21.5174C30.6293 20.2271 29.5467 19.1794 28.2133 19.1794V19.1742ZM35.2533 22.8645C34.48 22.8645 33.856 22.2606 33.856 21.5123C33.856 20.7639 34.48 20.16 35.2533 20.16C36.0267 20.16 36.6507 20.7639 36.6507 21.5123C36.6507 22.2606 36.0267 22.8645 35.2533 22.8645ZM35.2533 19.1742C33.92 19.1742 32.832 20.2219 32.832 21.5123C32.832 22.8026 33.9147 23.8503 35.248 23.8555C36.5813 23.8606 37.6693 22.8077 37.6693 21.5174C37.6693 20.2271 36.5867 19.1794 35.2533 19.1794V19.1742ZM11.9307 39.4168V33.6465L12.0107 33.5587C12.2293 33.3419 12.48 33.1561 12.7573 33.0168C14.816 31.7316 15.1947 29.9252 15.6053 27.7729C16.24 28.4697 16.5333 28.7794 16.496 29.8529C16.448 30.6271 16.224 31.3755 15.84 32.0568C15.712 32.2994 15.8133 32.5987 16.064 32.7226C16.1333 32.7587 16.2133 32.7742 16.2933 32.7742H17.664C18.0587 32.7742 18.3733 33.0839 18.3733 33.4606V39.5819C18.3733 39.9639 18.0533 40.2684 17.664 40.2684H13.8453C13.1093 40.2684 12.4107 39.9484 11.9307 39.4064V39.4168ZM10.9067 39.7058H9.57333V33.5587H10.9067V39.7058ZM17.664 31.7884H17.0933L17.2213 31.4013C17.5947 30.271 17.6907 28.8619 16.9813 27.8297C16.5813 27.2 15.856 26.8387 15.0987 26.8903C14.8587 26.9058 14.6667 27.0813 14.6347 27.3084C14.512 28.3819 14.2347 29.4297 13.808 30.431C13.1253 31.8297 12.6027 31.8142 11.68 32.511L11.5893 32.5832C11.536 32.5832 11.472 32.5729 11.4187 32.5729H9.06133C8.77867 32.5729 8.54933 32.7948 8.54933 33.0684V40.2065C8.54933 40.48 8.77867 40.7019 9.056 40.7019H11.4133C11.5307 40.6916 11.648 40.6606 11.7547 40.609L11.888 40.6968C12.464 41.0735 13.1413 41.2697 13.84 41.2748H17.664C18.6187 41.2748 19.3973 40.5213 19.3973 39.5974V33.4761C19.3973 32.5523 18.6187 31.7987 17.664 31.7987V31.7884ZM20.9653 9.78065C20.384 10.5135 19.68 11.1432 18.8747 11.6387C18.3413 11.9845 17.776 12.2684 17.1787 12.4852C16.512 12.2426 15.872 11.9226 15.28 11.5355C14.4107 10.9987 13.664 10.2968 13.0827 9.47097C12.336 8.35097 11.92 6.89032 12.64 5.65677C13.0133 4.96 13.744 4.51613 14.5547 4.48516C15.5627 4.48516 16.2773 5.24387 16.6987 6.05419C16.8267 6.29677 17.1307 6.39484 17.3867 6.27613C17.488 6.22968 17.568 6.1471 17.616 6.04903C18.032 5.21806 18.7573 4.34065 19.7973 4.33032C20.624 4.36645 21.36 4.85161 21.696 5.58452C22.016 6.21419 22.112 6.93161 21.9733 7.61806C21.8133 8.40258 21.472 9.13548 20.9707 9.77032L20.9653 9.78065ZM19.7813 3.35484C18.5813 3.36516 17.8507 4.02581 17.1413 4.86194C16.4373 4.0929 15.76 3.53548 14.6293 3.50968C13.424 3.50968 12.32 4.15484 11.7547 5.18194C10.8373 6.75613 11.264 8.56258 12.2293 10.0129C12.9493 11.0348 13.888 11.8916 14.9867 12.5265C15.4133 12.7845 16.6773 13.4865 17.1413 13.4865C17.824 13.3523 18.4747 13.0839 19.056 12.7071C20.1173 12.1084 21.0507 11.3135 21.7973 10.3742C22.4213 9.58452 22.8373 8.65548 23.008 7.67484C23.152 6.8129 23.008 5.93032 22.6133 5.15097C22.1013 4.08258 21.008 3.39097 19.792 3.36L19.7813 3.35484ZM35.792 33.0271L35.4187 33.5742L36.0907 33.4813C38.3307 33.1768 40.2133 32.2581 41.2 30.2194C41.2853 30.0439 41.4667 29.9355 41.664 29.9355H44.656C46.5013 29.9355 47.9947 28.4852 47.9947 26.7045V16.3303C47.9947 14.5445 46.496 13.0994 44.656 13.0994H30.9227V13.6155C30.9227 15.9432 28.9707 17.8323 26.56 17.8374H22.5013V26.7097C22.5013 28.4955 24 29.9406 25.84 29.9406H36.368C36.6507 29.9406 36.88 30.1626 36.88 30.431C36.88 30.4619 36.88 30.4929 36.8693 30.5239C36.688 31.4219 36.32 32.2735 35.792 33.0323V33.0271ZM13.2107 47.9174L13.8827 48L13.4987 47.4581C12.88 46.6013 12.448 45.631 12.24 44.6039C12.1867 44.3355 12.368 44.0774 12.6453 44.0258C12.6773 44.0206 12.7093 44.0155 12.7413 44.0155H24.2453C26.288 44.0155 27.9413 42.4103 27.9413 40.4387V30.9213H25.8347C23.4293 30.9213 21.4773 29.0323 21.472 26.6994V25.5226H3.696C1.65333 25.5226 0 27.1226 0 29.0994V40.4387C0 42.4155 1.65867 44.0155 3.696 44.0155H6.96533C7.16267 44.0155 7.344 44.129 7.42933 44.2994C8.53867 46.6065 10.6933 47.6077 13.216 47.9123L13.2107 47.9174ZM16.0267 16.8413H26.5547C28.4 16.8413 29.8933 15.391 29.8933 13.6103V3.23097C29.8933 1.44516 28.3947 0 26.5547 0H7.74933C5.904 0 4.41067 1.44516 4.41067 3.23097V13.6052C4.41067 15.391 5.90933 16.8361 7.74933 16.8361H10.7413C10.9387 16.8361 11.12 16.9497 11.2053 17.12C12.1867 19.1639 14.0747 20.0826 16.3147 20.3819L16.9867 20.4748L16.6133 19.9277C16.0853 19.169 15.7173 18.3174 15.536 17.4194C15.4827 17.151 15.6693 16.8929 15.9467 16.8413C15.9787 16.8361 16.0107 16.831 16.0373 16.831L16.0267 16.8413Z" fill="#00C5CD"/>
</g>
<defs>
<clipPath id="clip0_1594_847">
<rect width="48" height="48" fill="white"/>
</clipPath>
</defs>
</svg>
