<svg width="56" height="48" viewBox="0 0 56 48" fill="none" xmlns="http://www.w3.org/2000/svg">
<path d="M48.5294 0H4.65269C2.06132 0 0 1.95981 0 4.36758V35.7246C0 38.1323 2.06132 40.1481 4.65269 40.1481H28.7407C28.6818 39.8682 28.6229 39.6442 28.564 39.3642C28.5051 38.8043 28.564 38.3003 28.7407 37.7964H4.5938C3.4159 37.7964 2.41469 36.8445 2.41469 35.7246V10.919H50.6496V28.0533C50.8263 27.9973 51.003 27.9413 51.1796 27.8853C51.4741 27.8293 51.7686 27.7733 52.0631 27.7733C52.4164 27.7733 52.7698 27.8293 53.1232 27.8853V4.36758C53.1821 1.95981 51.0619 0 48.5294 0ZM5.7717 6.77535C4.94717 6.77535 4.29933 6.15941 4.29933 5.37548C4.29933 4.59156 4.94717 3.97562 5.7717 3.97562C6.59623 3.97562 7.24407 4.59156 7.24407 5.37548C7.24407 6.15941 6.59623 6.77535 5.7717 6.77535ZM10.1299 6.77535C9.30539 6.77535 8.65755 6.15941 8.65755 5.37548C8.65755 4.59156 9.30539 3.97562 10.1299 3.97562C10.9544 3.97562 11.6023 4.59156 11.6023 5.37548C11.6023 6.15941 10.9544 6.77535 10.1299 6.77535ZM14.4881 6.77535C13.6636 6.77535 13.0158 6.15941 13.0158 5.37548C13.0158 4.59156 13.6636 3.97562 14.4881 3.97562C15.3127 3.97562 15.9605 4.59156 15.9605 5.37548C15.9605 6.15941 15.3127 6.77535 14.4881 6.77535ZM48.3527 5.99142C48.3527 6.32739 48.0582 6.60737 47.7048 6.60737H32.2744C31.921 6.60737 31.6265 6.32739 31.6265 5.99142V4.75954C31.6265 4.42357 31.921 4.1436 32.2744 4.1436H47.7048C48.0582 4.1436 48.3527 4.42357 48.3527 4.75954V5.99142Z" fill="#00C5CD"/>
<path d="M21.261 29.9571H6.65511C6.36064 29.9571 6.06616 29.7331 6.06616 29.3971V28.2772C6.06616 27.9973 6.30174 27.7173 6.65511 27.7173H21.261C21.5555 27.7173 21.85 27.9413 21.85 28.2772V29.3971C21.85 29.7331 21.5555 29.9571 21.261 29.9571Z" fill="#00C5CD"/>
<path d="M21.261 34.4366H6.65511C6.36064 34.4366 6.06616 34.2126 6.06616 33.8766V32.7567C6.06616 32.4768 6.30174 32.1968 6.65511 32.1968H21.261C21.5555 32.1968 21.85 32.4208 21.85 32.7567V33.8766C21.85 34.2126 21.5555 34.4366 21.261 34.4366Z" fill="#00C5CD"/>
<path d="M20.5543 25.4774H7.36185C6.65511 25.4774 6.06616 24.9175 6.06616 24.2455V15.5664C6.06616 14.8944 6.65511 14.3345 7.36185 14.3345H20.4954C21.2021 14.3345 21.7911 14.8944 21.7911 15.5664V24.2455C21.85 24.9175 21.261 25.4774 20.5543 25.4774Z" fill="#00C5CD"/>
<path d="M32.2744 37.1806C31.8622 37.2366 31.5088 37.4605 31.2143 37.7405C30.8021 38.1325 30.6254 38.6924 30.6843 39.2524C30.7432 39.8123 31.0376 40.3163 31.5088 40.6522L39.1062 46.2517C41.1675 47.7635 43.8178 48.3235 46.3503 47.8195L50.0607 47.0356C52.0631 46.5877 53.7122 45.4678 54.8312 43.8439C55.8913 42.2201 56.2446 40.2603 55.8324 38.4124L54.1833 31.4131C53.9477 30.3492 52.8287 29.7333 51.7686 29.9573C51.0619 30.1252 50.5318 30.5732 50.2963 31.1891L49.7662 32.309L49.4717 31.0212C49.2361 29.9573 48.1171 29.3413 47.057 29.5653C46.3503 29.7333 45.8202 30.1812 45.5847 30.7972L45.1135 32.0291L44.819 30.6852C44.5834 29.6213 43.4644 29.0054 42.4043 29.2293C41.6976 29.3973 41.1675 29.8453 40.932 30.4612L40.4608 31.6931L38.3995 22.9019C38.2817 22.398 37.9872 21.95 37.5161 21.6701C37.0449 21.3901 36.5149 21.2781 35.9848 21.3901C34.8658 21.6141 34.218 22.678 34.4535 23.6859L37.9283 38.4124C37.9872 38.6924 37.8694 38.9724 37.6339 39.1404C37.3983 39.3084 37.1038 39.3084 36.8093 39.1404L33.8646 37.4045C33.3934 37.1246 32.8045 37.0686 32.2744 37.1806Z" fill="#00C5CD"/>
<path d="M42.1099 15.5106C41.6976 15.2306 41.1087 15.3986 40.8731 15.7906C40.5786 16.1825 40.7553 16.7425 41.1676 16.9665C44.3479 18.8703 45.2902 22.9019 43.2878 25.9256C42.9933 26.3176 43.17 26.8775 43.5823 27.1015C43.8178 27.2135 44.0534 27.2695 44.289 27.2135C44.5246 27.1575 44.7013 27.0455 44.8779 26.8215C47.4104 23.0699 46.1736 17.9744 42.1099 15.5106Z" fill="#00C5CD"/>
<path d="M40.2252 18.4217C39.8129 18.1418 39.224 18.3098 38.9884 18.7017C38.6939 19.0937 38.8706 19.6536 39.2829 19.8776C40.8141 20.7735 41.2264 22.6773 40.2841 24.1332C39.9896 24.5252 40.1663 25.0851 40.5786 25.3091C40.8141 25.4211 41.0497 25.4771 41.2853 25.4211C41.5209 25.3651 41.6976 25.2531 41.8742 25.0291C43.2877 22.7893 42.581 19.8216 40.2252 18.4217Z" fill="#00C5CD"/>
<path d="M29.2119 19.542C29.5064 19.15 29.3297 18.5901 28.9174 18.3661C28.5052 18.0861 27.9162 18.2541 27.6806 18.6461C25.0893 22.5097 26.3261 27.6052 30.3898 30.013C30.6254 30.1249 30.861 30.1809 31.0965 30.1249C31.3321 30.069 31.5088 29.957 31.6855 29.733C31.98 29.341 31.8033 28.7811 31.391 28.5571C28.1518 26.5973 27.2095 22.5657 29.2119 19.542Z" fill="#00C5CD"/>
<path d="M32.2744 21.334C32.5689 20.942 32.3922 20.382 31.98 20.1581C31.5677 19.8781 30.9787 20.0461 30.7432 20.438C29.2708 22.6778 29.9775 25.6455 32.3333 27.1014C32.5689 27.2134 32.8045 27.2694 33.0401 27.2134C33.2756 27.1574 33.4523 27.0454 33.629 26.8214C33.9235 26.4295 33.7468 25.8695 33.3345 25.6455C31.8033 24.6936 31.3321 22.7898 32.2744 21.334Z" fill="#00C5CD"/>
</svg>
