<svg width="19" height="26" viewBox="0 0 19 26" fill="none" xmlns="http://www.w3.org/2000/svg">
<g clip-path="url(#clip0_1049_22)">
<path d="M18.3242 16.2223L9.98417 8.05456C9.60474 7.68298 8.98683 7.68298 8.60741 8.05456L6.36701 10.2487L8.2858 11.9969L9.34096 10.9635L15.5635 16.8239L9.34096 22.7868L3.35693 16.9265L4.41209 15.7941L2.48245 14.0529L0.285421 16.2081C-0.094001 16.5797 -0.094001 17.1848 0.285421 17.5564L8.62547 25.7241C9.0049 26.0957 9.62281 26.0957 10.0022 25.7241L18.3278 17.5706C18.7073 17.199 18.7073 16.5938 18.3278 16.2223H18.3242Z" fill="#00C5CD"/>
<path d="M0.664892 9.15499L8.41594 17.8606C8.76645 18.2569 9.38437 18.2959 9.78909 17.9526L12.174 15.9142L10.3817 14.0386L9.25789 14.9976L3.46177 8.7374L10.0854 3.20617L15.6502 9.45579L14.5192 10.5139L16.3224 12.3789L18.6676 10.3759C19.0723 10.0326 19.112 9.42748 18.7615 9.03113L11.0068 0.325534C10.6563 -0.070818 10.0384 -0.109745 9.6337 0.233524L0.762458 7.81022C0.357741 8.15349 0.317992 8.75864 0.668506 9.15499H0.664892Z" fill="#00C5CD"/>
</g>
<defs>
<clipPath id="clip0_1049_22">
<rect width="19" height="26" fill="white"/>
</clipPath>
</defs>
</svg>
